<svg width="240" height="33" viewBox="0 0 240 33" fill="none" xmlns="http://www.w3.org/2000/svg">
<path d="M7.80664 28.6504C6.6582 28.6504 5.62109 28.498 4.69531 28.1934C3.76953 27.9004 2.97266 27.4727 2.30469 26.9102C1.625 26.3477 1.10352 25.6797 0.740234 24.9062C0.388672 24.1328 0.212891 23.2773 0.212891 22.3398C0.212891 21.5547 0.335938 20.8164 0.582031 20.125C0.839844 19.4219 1.19727 18.8125 1.6543 18.2969C2.11133 17.7812 2.64453 17.3828 3.25391 17.1016C3.86328 16.8086 4.50781 16.6621 5.1875 16.6621C6.03125 16.6621 6.74023 16.873 7.31445 17.2949C7.88867 17.7168 8.24609 18.2969 8.38672 19.0352C7.13281 19.0352 6.13672 19.3691 5.39844 20.0371C5.04688 20.3535 4.77148 20.7402 4.57227 21.1973C4.38477 21.6543 4.29102 22.1582 4.29102 22.709C4.29102 23.7637 4.5957 24.6016 5.20508 25.2227C5.82617 25.832 6.6582 26.1367 7.70117 26.1367C8.32227 26.1367 8.90234 26.0254 9.44141 25.8027C9.98047 25.5684 10.4492 25.252 10.8477 24.8535C11.2461 24.4551 11.5508 23.9805 11.7617 23.4297C11.9844 22.8672 12.0957 22.2695 12.0957 21.6367C12.0957 20.4648 11.6973 19.2461 10.9004 17.9805C10.584 17.4883 10.2324 17.0078 9.8457 16.5391C9.4707 16.0586 8.94336 15.4258 8.26367 14.6406C7.6543 13.9375 7.14453 13.3281 6.73438 12.8125C6.32422 12.2969 5.95508 11.7695 5.62695 11.2305C4.83008 9.92969 4.43164 8.65234 4.43164 7.39844C4.43164 6.46094 4.63086 5.59375 5.0293 4.79688C5.42773 3.98828 5.99609 3.28516 6.73438 2.6875C7.47266 2.08984 8.33398 1.62695 9.31836 1.29883C10.3027 0.970703 11.3633 0.806641 12.5 0.806641C14.4336 0.806641 15.9863 1.26367 17.1582 2.17773C17.7207 2.62305 18.1484 3.15625 18.4414 3.77734C18.7461 4.39844 18.8984 5.08984 18.8984 5.85156C18.8984 6.84766 18.6465 7.66211 18.1426 8.29492C17.9082 8.59961 17.6152 8.83398 17.2637 8.99805C16.9238 9.16211 16.5605 9.24414 16.1738 9.24414C15.2715 9.24414 14.5391 8.86914 13.9766 8.11914C14.4336 7.79102 14.791 7.35742 15.0488 6.81836C15.3184 6.26758 15.4531 5.68164 15.4531 5.06055C15.4531 4.28711 15.2246 3.67773 14.7676 3.23242C14.3105 2.77539 13.6836 2.54688 12.8867 2.54688C12.4062 2.54688 11.9609 2.63477 11.5508 2.81055C11.1523 2.98633 10.8125 3.23828 10.5312 3.56641C10.2383 3.89453 10.0098 4.28125 9.8457 4.72656C9.69336 5.17187 9.61719 5.6582 9.61719 6.18555C9.61719 6.93555 9.79297 7.65625 10.1445 8.34766C10.4961 9.03906 11 9.75977 11.6562 10.5098C12.2422 11.2012 12.875 11.8867 13.5547 12.5664C15.1367 14.207 16.2559 15.8066 16.9121 17.3652C17.2988 18.291 17.4922 19.3105 17.4922 20.4238C17.4922 21.5957 17.252 22.6855 16.7715 23.6934C16.291 24.6895 15.6055 25.5566 14.7148 26.2949C13.8242 27.0449 12.7871 27.625 11.6035 28.0352C10.4199 28.4453 9.1543 28.6504 7.80664 28.6504ZM23.0996 28.2109C21.9512 28.2109 21.043 27.8711 20.375 27.1914C19.625 26.4414 19.25 25.3457 19.25 23.9043C19.25 23.2246 19.3438 22.4395 19.5312 21.5488L21.9746 10H27.1602L24.5762 22.2344C24.5059 22.5977 24.4707 22.9375 24.4707 23.2539C24.4707 24.2383 24.8281 24.7305 25.543 24.7305C26.1992 24.7305 26.791 24.4316 27.3184 23.834C27.7402 23.3301 28.1094 22.5684 28.4258 21.5488L30.8691 10H36.0547L33.4707 22.2344C33.3652 22.5859 33.3125 22.9727 33.3125 23.3945C33.3125 23.8867 33.4297 24.2324 33.6641 24.4316C33.8984 24.6309 34.2734 24.7305 34.7891 24.7305C35.457 24.7305 36.0547 24.4316 36.582 23.834C37.0508 23.3066 37.4258 22.5449 37.707 21.5488H39.2188C38.5742 23.377 37.7949 24.8242 36.8809 25.8906C36.1074 26.7695 35.2344 27.4023 34.2617 27.7891C33.5469 28.0703 32.791 28.2109 31.9941 28.2109C30.9629 28.2109 30.1426 27.9238 29.5332 27.3496C28.9238 26.7754 28.5547 25.9258 28.4258 24.8008C27.6055 26.1133 26.6797 27.0508 25.6484 27.6133C24.9102 28.0117 24.0605 28.2109 23.0996 28.2109ZM42.4883 28.2109C40.8477 28.2109 39.5996 27.8125 38.7441 27.0156C37.8887 26.207 37.4609 25.0703 37.4609 23.6055C37.4609 22.8203 37.543 22.1348 37.707 21.5488L41.5566 3.51367L46.8828 2.79297L45.1602 10.8965C45.8516 10.4746 46.4375 10.1934 46.918 10.0527C47.2695 9.94727 47.668 9.89453 48.1133 9.89453C49.4609 9.89453 50.4863 10.3457 51.1895 11.248C51.9746 12.2676 52.3672 13.8672 52.3672 16.0469C52.3672 16.7969 52.2969 17.6113 52.1562 18.4902C52.0156 19.3574 51.7988 20.2188 51.5059 21.0742C50.8027 23.125 49.7832 24.7656 48.4473 25.9961C46.8301 27.4727 44.8438 28.2109 42.4883 28.2109ZM44.5098 24.7305C45.2363 24.7305 45.9512 24.2441 46.6543 23.2715C47.2637 22.4043 47.7676 21.2676 48.166 19.8613C48.541 18.4785 48.7285 17.1602 48.7285 15.9062C48.7285 14.9336 48.5762 14.1367 48.2715 13.5156C48.1074 13.1758 47.9023 12.9121 47.6562 12.7246C47.4102 12.5371 47.1289 12.4434 46.8125 12.4434C46.4023 12.4434 46.0332 12.4844 45.7051 12.5664C45.2129 12.6953 44.873 12.8711 44.6855 13.0938L42.7168 22.2344C42.6465 22.5273 42.6113 22.8027 42.6113 23.0605C42.6113 24.1738 43.2441 24.7305 44.5098 24.7305ZM66.6934 28.2109C65.2051 28.2109 64.1035 27.7891 63.3887 26.9453C62.7676 26.2188 62.457 25.2871 62.457 24.1504C62.457 23.6113 62.5215 22.9844 62.6504 22.2695C62.791 21.5547 62.9961 20.6348 63.2656 19.5098C63.5352 18.3613 63.7344 17.4473 63.8633 16.7676C64.0039 16.0762 64.0742 15.4785 64.0742 14.9746C64.0742 13.7441 63.6406 13.1289 62.7734 13.1289C62.1641 13.1289 61.6016 13.4512 61.0859 14.0957C60.6523 14.6465 60.2773 15.4316 59.9609 16.4512L57.5176 28H52.332L57.5527 3.51367L62.8789 2.79297L60.9453 11.8633C61.6484 11.0781 62.4043 10.5273 63.2129 10.2109C63.8105 9.97656 64.4551 9.85938 65.1465 9.85938C66.3652 9.85938 67.3262 10.1758 68.0293 10.8086C68.7793 11.5 69.1543 12.5371 69.1543 13.9199C69.1543 14.752 69.002 15.8359 68.6973 17.1719C68.6152 17.5586 68.4805 18.1387 68.293 18.9121C67.9531 20.2129 67.707 21.25 67.5547 22.0234C67.4609 22.5156 67.4141 22.9141 67.4141 23.2188C67.4141 23.6992 67.5195 24.0742 67.7305 24.3438C67.9531 24.6016 68.3281 24.7305 68.8555 24.7305C69.5703 24.7305 70.1738 24.4375 70.666 23.8516C71.041 23.4062 71.4453 22.6387 71.8789 21.5488H73.3906C72.5 24.1855 71.375 26.0312 70.0156 27.0859C69.0547 27.8359 67.9473 28.2109 66.6934 28.2109ZM76.2031 28.2109C74.832 28.2109 73.7246 27.7832 72.8809 26.9277C71.8965 25.9199 71.4043 24.4199 71.4043 22.4277C71.4043 21.584 71.4922 20.6934 71.668 19.7559C71.832 18.8184 72.0781 17.8926 72.4062 16.9785C73.1562 14.916 74.1816 13.252 75.4824 11.9863C76.9824 10.5449 78.7109 9.82422 80.668 9.82422C81.6406 9.82422 82.3672 9.99414 82.8477 10.334C83.3398 10.6621 83.5859 11.1016 83.5859 11.6523V11.916L83.9727 10H89.1582L86.5742 22.2344C86.4688 22.5859 86.416 22.9727 86.416 23.3945C86.416 24.4258 86.9082 24.9414 87.8926 24.9414C88.5488 24.9414 89.1465 24.6074 89.6855 23.9395C90.1426 23.377 90.5176 22.5801 90.8105 21.5488H92.3223C91.6777 23.377 90.8984 24.8242 89.9844 25.8906C89.2109 26.7695 88.3379 27.4023 87.3652 27.7891C86.6504 28.0703 85.8945 28.2109 85.0977 28.2109C84.0781 28.2109 83.2637 27.9355 82.6543 27.3848C82.0566 26.8223 81.6934 25.9961 81.5645 24.9062C80.8848 25.8672 80.1699 26.6172 79.4199 27.1562C78.459 27.8594 77.3867 28.2109 76.2031 28.2109ZM78.541 24.7305C78.8105 24.7305 79.0918 24.6602 79.3848 24.5195C79.6895 24.3789 79.9824 24.1797 80.2637 23.9219C80.8965 23.3125 81.3184 22.5215 81.5293 21.5488L83.252 13.4277C83.252 13.3105 83.2227 13.1758 83.1641 13.0234C83.1172 12.8594 83.0469 12.707 82.9531 12.5664C82.6719 12.2266 82.2793 12.0566 81.7754 12.0566C81.2949 12.0566 80.8262 12.2148 80.3691 12.5312C79.9238 12.8477 79.502 13.2871 79.1035 13.8496C78.4004 14.8691 77.8203 16.1992 77.3633 17.8398C77.1523 18.5664 76.9941 19.2871 76.8887 20.002C76.7832 20.7051 76.7305 21.3438 76.7305 21.918C76.7305 23.1133 76.9531 23.9219 77.3984 24.3438C77.5508 24.5078 77.7207 24.6133 77.9082 24.6602C78.0957 24.707 78.3066 24.7305 78.541 24.7305ZM103.818 28.2109C102.33 28.2109 101.229 27.7891 100.514 26.9453C99.8926 26.2188 99.582 25.2871 99.582 24.1504C99.582 23.6113 99.6465 22.9844 99.7754 22.2695C99.916 21.5547 100.121 20.6348 100.391 19.5098C100.66 18.3613 100.859 17.4473 100.988 16.7676C101.129 16.0762 101.199 15.4785 101.199 14.9746C101.199 13.7441 100.766 13.1289 99.8984 13.1289C99.2891 13.1289 98.7266 13.4512 98.2109 14.0957C97.7773 14.6465 97.4023 15.4316 97.0859 16.4512L94.6426 28H89.457L93.2715 10H98.457L98.0703 11.8633C98.7734 11.0781 99.5293 10.5273 100.338 10.2109C100.936 9.97656 101.58 9.85938 102.271 9.85938C103.49 9.85938 104.451 10.1758 105.154 10.8086C105.904 11.5 106.279 12.5371 106.279 13.9199C106.279 14.752 106.127 15.8359 105.822 17.1719C105.74 17.5586 105.605 18.1387 105.418 18.9121C105.078 20.2129 104.832 21.25 104.68 22.0234C104.586 22.5156 104.539 22.9141 104.539 23.2188C104.539 23.6992 104.645 24.0742 104.855 24.3438C105.078 24.6016 105.453 24.7305 105.98 24.7305C106.695 24.7305 107.299 24.4375 107.791 23.8516C108.166 23.4062 108.57 22.6387 109.004 21.5488H110.516C109.625 24.1855 108.5 26.0312 107.141 27.0859C106.18 27.8359 105.072 28.2109 103.818 28.2109ZM113.328 28.2109C111.957 28.2109 110.85 27.7832 110.006 26.9277C109.021 25.9199 108.529 24.4199 108.529 22.4277C108.529 21.584 108.617 20.6934 108.793 19.7559C108.957 18.8184 109.203 17.8926 109.531 16.9785C110.281 14.916 111.307 13.252 112.607 11.9863C114.107 10.5449 115.836 9.82422 117.793 9.82422C118.766 9.82422 119.492 9.99414 119.973 10.334C120.465 10.6621 120.711 11.1016 120.711 11.6523V11.916L121.098 10H126.283L123.699 22.2344C123.594 22.5859 123.541 22.9727 123.541 23.3945C123.541 24.4258 124.033 24.9414 125.018 24.9414C125.674 24.9414 126.271 24.6074 126.811 23.9395C127.268 23.377 127.643 22.5801 127.936 21.5488H129.447C128.803 23.377 128.023 24.8242 127.109 25.8906C126.336 26.7695 125.463 27.4023 124.49 27.7891C123.775 28.0703 123.02 28.2109 122.223 28.2109C121.203 28.2109 120.389 27.9355 119.779 27.3848C119.182 26.8223 118.818 25.9961 118.689 24.9062C118.01 25.8672 117.295 26.6172 116.545 27.1562C115.584 27.8594 114.512 28.2109 113.328 28.2109ZM115.666 24.7305C115.936 24.7305 116.217 24.6602 116.51 24.5195C116.814 24.3789 117.107 24.1797 117.389 23.9219C118.021 23.3125 118.443 22.5215 118.654 21.5488L120.377 13.4277C120.377 13.3105 120.348 13.1758 120.289 13.0234C120.242 12.8594 120.172 12.707 120.078 12.5664C119.797 12.2266 119.404 12.0566 118.9 12.0566C118.42 12.0566 117.951 12.2148 117.494 12.5312C117.049 12.8477 116.627 13.2871 116.229 13.8496C115.525 14.8691 114.945 16.1992 114.488 17.8398C114.277 18.5664 114.119 19.2871 114.014 20.002C113.908 20.7051 113.855 21.3438 113.855 21.918C113.855 23.1133 114.078 23.9219 114.523 24.3438C114.676 24.5078 114.846 24.6133 115.033 24.6602C115.221 24.707 115.432 24.7305 115.666 24.7305ZM143.598 32.0957C142.941 32.0957 142.367 32.0664 141.875 32.0078C141.383 31.9492 140.92 31.8086 140.486 31.5859C139.35 31.0352 138.781 29.9336 138.781 28.2812C138.781 27.4844 138.904 26.5293 139.15 25.416C139.408 24.3027 139.771 23.1016 140.24 21.8125C141.271 18.9766 142.549 16.252 144.072 13.6387C142.877 13.709 141.928 13.8906 141.225 14.1836C140.533 14.4648 140.076 14.9043 139.854 15.502C139.959 15.502 140.064 15.625 140.17 15.8711C140.275 16.1172 140.328 16.3691 140.328 16.627C140.328 17.0488 140.135 17.3887 139.748 17.6465C139.361 17.9043 138.881 18.0332 138.307 18.0332C137.662 18.0332 137.135 17.8574 136.725 17.5059C136.291 17.1426 136.074 16.6211 136.074 15.9414C136.074 15.3438 136.256 14.7754 136.619 14.2363C136.982 13.6855 137.498 13.2109 138.166 12.8125C138.846 12.4023 139.631 12.0859 140.521 11.8633C141.424 11.6289 142.391 11.5117 143.422 11.5117C143.926 11.5117 144.553 11.5469 145.303 11.6172C147.318 8.44141 149.334 5.95117 151.35 4.14648C153.693 2.04883 155.85 1 157.818 1C158.99 1 159.939 1.16992 160.666 1.50977L155.023 28H149.838L152.598 14.9395C151.73 14.541 150.916 14.2422 150.154 14.043C149.404 13.8438 148.613 13.709 147.781 13.6387C146.422 16.5801 145.309 19.5859 144.441 22.6562C143.551 25.7383 143.105 28.2168 143.105 30.0918C143.105 31.0176 143.27 31.6855 143.598 32.0957ZM155.023 3.54883C153.98 4.11133 152.885 5.17187 151.736 6.73047C150.611 8.27734 149.545 10.0645 148.537 12.0918C150.178 12.4082 151.643 12.8242 152.932 13.3398L155.023 3.54883ZM172.795 28.2109C171.307 28.2109 170.205 27.7891 169.49 26.9453C168.869 26.2188 168.559 25.2871 168.559 24.1504C168.559 23.6113 168.623 22.9844 168.752 22.2695C168.893 21.5547 169.098 20.6348 169.367 19.5098C169.637 18.3613 169.836 17.4473 169.965 16.7676C170.105 16.0762 170.176 15.4785 170.176 14.9746C170.176 13.7441 169.742 13.1289 168.875 13.1289C168.266 13.1289 167.703 13.4512 167.188 14.0957C166.754 14.6465 166.379 15.4316 166.062 16.4512L163.619 28H158.434L163.654 3.51367L168.98 2.79297L167.047 11.8633C167.75 11.0781 168.506 10.5273 169.314 10.2109C169.912 9.97656 170.557 9.85938 171.248 9.85938C172.467 9.85938 173.428 10.1758 174.131 10.8086C174.881 11.5 175.256 12.5371 175.256 13.9199C175.256 14.752 175.104 15.8359 174.799 17.1719C174.717 17.5586 174.582 18.1387 174.395 18.9121C174.055 20.2129 173.809 21.25 173.656 22.0234C173.562 22.5156 173.516 22.9141 173.516 23.2188C173.516 23.6992 173.621 24.0742 173.832 24.3438C174.055 24.6016 174.43 24.7305 174.957 24.7305C175.672 24.7305 176.275 24.4375 176.768 23.8516C177.143 23.4062 177.547 22.6387 177.98 21.5488H179.492C178.602 24.1855 177.477 26.0312 176.117 27.0859C175.156 27.8359 174.049 28.2109 172.795 28.2109ZM199.865 28.2109C198.377 28.2109 197.275 27.7891 196.561 26.9453C195.939 26.2188 195.629 25.2871 195.629 24.1504C195.629 23.6113 195.693 22.9844 195.822 22.2695C195.963 21.5547 196.168 20.6348 196.438 19.5098C196.707 18.3613 196.906 17.4473 197.035 16.7676C197.176 16.0762 197.246 15.4785 197.246 14.9746C197.246 13.7441 196.812 13.1289 195.945 13.1289C195.336 13.1289 194.773 13.4512 194.258 14.0957C193.824 14.6465 193.449 15.4316 193.133 16.4512L190.689 28H185.504L188.141 15.5723C188.211 15.291 188.246 14.9922 188.246 14.6758C188.246 14.1953 188.17 13.8262 188.018 13.5684C187.818 13.252 187.531 13.0938 187.156 13.0938C186.477 13.0938 185.885 13.4219 185.381 14.0781C184.936 14.6406 184.555 15.4316 184.238 16.4512L181.795 28H176.609L180.424 10H185.609L185.223 11.8633C185.926 11.0781 186.693 10.5215 187.525 10.1934C188.182 9.94727 188.879 9.82422 189.617 9.82422C190.625 9.82422 191.428 10.0586 192.025 10.5273C192.693 11.0547 193.121 11.8516 193.309 12.918C194.082 11.7227 194.973 10.8789 195.98 10.3867C196.695 10.0352 197.475 9.85938 198.318 9.85938C199.525 9.85938 200.48 10.1758 201.184 10.8086C201.934 11.5 202.309 12.5371 202.309 13.9199C202.309 14.7051 202.162 15.7891 201.869 17.1719C201.752 17.7461 201.611 18.3262 201.447 18.9121C201.154 20.0371 200.914 21.0742 200.727 22.0234C200.633 22.5156 200.586 22.9141 200.586 23.2188C200.586 23.6992 200.691 24.0742 200.902 24.3438C201.125 24.6016 201.5 24.7305 202.027 24.7305C202.742 24.7305 203.346 24.4375 203.838 23.8516C204.213 23.4062 204.617 22.6387 205.051 21.5488H206.562C205.672 24.1855 204.547 26.0312 203.188 27.0859C202.227 27.8359 201.119 28.2109 199.865 28.2109ZM210.201 28.2109C208.432 28.2109 207.066 27.7656 206.105 26.875C205.086 25.9258 204.576 24.4668 204.576 22.498C204.576 21.7598 204.652 20.9395 204.805 20.0371C204.945 19.1348 205.162 18.2324 205.455 17.3301C205.783 16.3223 206.199 15.3672 206.703 14.4648C207.219 13.5625 207.816 12.7656 208.496 12.0742C210.066 10.4805 212 9.68359 214.297 9.68359C215.762 9.68359 216.828 10.0352 217.496 10.7383C218.012 11.2891 218.27 12.0859 218.27 13.1289C218.27 14.1484 218.047 15.1094 217.602 16.0117C217.156 16.9023 216.541 17.6934 215.756 18.3848C214.971 19.0645 214.08 19.6094 213.084 20.0195C212.088 20.418 211.057 20.6523 209.99 20.7227C209.932 21.332 209.902 21.8125 209.902 22.1641C209.902 23.3359 210.125 24.1445 210.57 24.5898C210.957 24.9883 211.602 25.1875 212.504 25.1875C213.805 25.1875 214.994 24.8359 216.072 24.1328C216.529 23.8398 216.969 23.4941 217.391 23.0957C217.812 22.6855 218.305 22.1699 218.867 21.5488H220.098C218.961 23.4707 217.654 25 216.178 26.1367C214.361 27.5195 212.369 28.2109 210.201 28.2109ZM210.271 19C210.939 18.9531 211.59 18.7598 212.223 18.4199C212.855 18.0801 213.418 17.6348 213.91 17.084C214.402 16.5215 214.789 15.8945 215.07 15.2031C215.352 14.5 215.492 13.7852 215.492 13.0586C215.492 12.5781 215.422 12.2148 215.281 11.9688C215.152 11.7109 214.924 11.582 214.596 11.582C214.162 11.582 213.723 11.793 213.277 12.2148C212.844 12.6367 212.422 13.2168 212.012 13.9551C211.637 14.6465 211.297 15.4316 210.992 16.3105C210.688 17.1895 210.447 18.0859 210.271 19ZM223.191 28.2109C221.82 28.2109 220.713 27.7832 219.869 26.9277C218.885 25.9199 218.393 24.4199 218.393 22.4277C218.393 21.584 218.48 20.6934 218.656 19.7559C218.82 18.8184 219.066 17.8926 219.395 16.9785C220.145 14.916 221.17 13.252 222.471 11.9863C223.971 10.5449 225.699 9.82422 227.656 9.82422C228.629 9.82422 229.355 9.99414 229.836 10.334C230.328 10.6621 230.574 11.1016 230.574 11.6523V11.793L232.332 3.51367L237.658 2.79297L233.527 22.2344C233.422 22.5859 233.369 22.9727 233.369 23.3945C233.369 23.8867 233.486 24.2324 233.721 24.4316C233.955 24.6309 234.33 24.7305 234.846 24.7305C235.514 24.7305 236.111 24.4316 236.639 23.834C237.084 23.3066 237.459 22.5449 237.764 21.5488H239.275C238.643 23.3535 237.863 24.7773 236.938 25.8203C236.152 26.6875 235.279 27.291 234.318 27.6309C233.627 27.877 232.871 28 232.051 28C231.055 28 230.252 27.7363 229.643 27.209C229.033 26.6816 228.658 25.9141 228.518 24.9062C227.873 25.8789 227.176 26.6289 226.426 27.1562C225.453 27.8594 224.375 28.2109 223.191 28.2109ZM225.529 24.7305C225.787 24.7305 226.062 24.666 226.355 24.5371C226.66 24.4082 226.947 24.2266 227.217 23.9922C227.85 23.418 228.271 22.668 228.482 21.7422V21.5488L230.24 13.3047C230.158 12.9766 230.041 12.7129 229.889 12.5137C229.643 12.209 229.268 12.0566 228.764 12.0566C228.283 12.0566 227.814 12.2148 227.357 12.5312C226.912 12.8477 226.49 13.2871 226.092 13.8496C225.389 14.8691 224.809 16.1992 224.352 17.8398C224.141 18.5664 223.982 19.2871 223.877 20.002C223.771 20.7051 223.719 21.3438 223.719 21.918C223.719 23.1133 223.941 23.9219 224.387 24.3438C224.539 24.5078 224.709 24.6133 224.896 24.6602C225.084 24.707 225.295 24.7305 225.529 24.7305Z" fill="#FF0000"/>
</svg>
